# xmcd
#
# Track frame offsets:
#	150
#	21611
#	41521
#	65560
#	82058
#	98509
#	123200
#	141553
#	157990
#	181622
#	197204
#	222074
#	242025
#
# Disc length: 3742 seconds
#
# Revision: 1
# Processed by: cddbd v1.5.2PL0 Copyright (c) Steve Scherf et al.
# Submitted via: audiograbber 1.83.01
#
DISCID=b30e9c0d
DTITLE=King of the World - Can't go home
DYEAR=2013
DGENRE=Blues
TTITLE0=Bluesified
TTITLE1=Evil thing
TTITLE2=Help me find the way
TTITLE3=Gone gone gone
TTITLE4=Mr big shot
TTITLE5=Learn how to cry
TTITLE6=Wrong side of life
TTITLE7=Better leave while you can
TTITLE8=Broke and lonely
TTITLE9=She's a burglar
TTITLE10=Let's go get stoned
TTITLE11=Number one
TTITLE12=Can't go home
EXTD=
EXTT0=
EXTT1=
EXTT2=
EXTT3=
EXTT4=
EXTT5=
EXTT6=
EXTT7=
EXTT8=
EXTT9=
EXTT10=
EXTT11=
EXTT12=
PLAYORDER=
